<?xml version="1.0" encoding="UTF-8" standalone="no"?>
<svg width="786.39624pt" height="55.510235pt" viewBox="0 0 4908.9606 351.0206" version="1.1" id="svg146" xmlns="http://www.w3.org/2000/svg" xmlns:svg="http://www.w3.org/2000/svg">
  <g transform="translate(-96.781934,-50.099397)">
    <path fill="#ffffff" d="m 1002.85,117.94 c -0.69,-6.65 -1.64,-13.27 -2.17,-19.93 2.57,6.3 4.71,12.76 7.1,19.13 0.69,2.44 2.91,3.87 4.67,5.51 6.92,6.05 13.59,12.4 20.58,18.36 10.25,5.91 21.21,10.6 31.46,16.51 11.55,15.47 22.5,31.43 33.99,46.96 4.46,4.21 9.24,8.12 14.11,11.85 -1.86,-2.82 -3.99,-5.44 -6.07,-8.08 4.66,-1.38 9.45,-2.29 14.03,-3.93 -4.3,-0.41 -8.62,-0.52 -12.91,-0.92 6.14,-1.51 12.46,-2.14 18.61,-3.62 -7.56,-1 -15.22,-0.92 -22.75,-2.16 8.35,-1.39 16.7,-2.77 25.04,-4.23 5.06,-1.07 9.85,1.55 14.82,2.13 -3.69,-1.89 -7.38,-3.85 -11.31,-5.19 -5.84,-0.19 -11.68,0.39 -17.51,0.2 6.14,-1.44 12.36,-2.67 18.61,-3.59 4.21,0.7 8.1,2.73 12.24,3.79 -3.46,-2.41 -6.95,-4.81 -10.63,-6.85 -4.33,-0.68 -8.74,-0.33 -13.08,-0.85 4.76,-0.91 9.55,-1.85 14.4,-2.24 4.3,1.5 8.2,3.96 12.49,5.52 -3.2,-3.24 -6.46,-6.44 -9.94,-9.37 -3.8,-0.8 -7.82,-0.06 -11.69,-0.38 4.5,-1.51 9.21,-2.27 13.83,-3.34 4.01,3.24 7.89,6.64 12.04,9.71 -2.91,-4.59 -6.09,-9.01 -9.13,-13.51 -3.43,-0.63 -6.86,-1.23 -10.21,-2.18 4.23,-0.35 8.49,-0.48 12.74,-0.82 3.99,4.54 7.59,9.42 11.7,13.87 -2.56,-5.84 -5.38,-11.56 -8.07,-17.33 -3.7,-1.29 -7.46,-2.37 -11.13,-3.71 4.67,-0.16 9.32,0.58 13.99,0.88 3.7,6 6.97,12.26 10.83,18.17 -2.03,-6.79 -4.29,-13.51 -6.54,-20.23 -0.19,-1.46 -1.79,-1.62 -2.83,-2.12 -3.77,-1.36 -7.62,-2.49 -11.26,-4.14 5.57,0.63 11.05,1.89 16.59,2.82 3.23,7.24 5.86,14.77 9.48,21.83 -1.8,-8.19 -3.98,-16.3 -5.96,-24.45 -4.74,-2.87 -9.82,-5.19 -14.33,-8.42 5.83,1.88 11.48,4.3 17.24,6.42 2.9,8.1 5.33,16.37 8.51,24.37 -1.46,-8.94 -3.4,-17.8 -5.05,-26.71 -5.22,-3.98 -10.84,-7.46 -15.77,-11.81 6.3,3.16 12.37,6.76 18.58,10.11 2.54,8.48 4.48,17.15 7.43,25.5 -1.24,-9.05 -2.75,-18.08 -4.41,-27.05 -4.98,-5.54 -11.33,-9.82 -16.48,-15.24 6.68,4.07 12.96,8.77 19.5,13.07 1.85,8.69 3.85,17.36 5.47,26.1 -0.04,-9.25 -1.41,-18.48 -2.44,-27.65 -5.16,-6.37 -11.25,-11.94 -16.45,-18.28 6.61,5.29 13.23,10.72 19.32,16.58 1.92,8.22 2.44,16.75 4.56,24.93 -0.28,-8.87 -1.15,-17.72 -1.71,-26.57 -5.21,-6.82 -10.59,-13.52 -15.58,-20.5 6.35,6.14 12.43,12.61 18.39,19.12 1.39,6.81 1.96,13.8 2.9,20.69 0.16,0.02 0.49,0.05 0.65,0.07 -0.51,-6.6 -0.56,-13.22 -0.86,-19.82 -0.06,-1.21 -0.22,-2.45 -0.94,-3.45 -4.42,-6.96 -9.14,-13.73 -13.45,-20.77 5.84,6.61 11.14,13.72 16.52,20.7 1.47,5.24 1.25,10.82 2.8,16.06 -0.16,-5.74 -0.19,-11.52 -0.86,-17.22 -2.99,-7.58 -6.85,-14.81 -9.81,-22.41 4.08,5.87 7.31,12.29 11.09,18.36 2.57,3.54 2.03,8.11 2.98,12.18 0.51,-4.69 1.37,-9.56 -0.04,-14.17 -1.5,-6.02 -3.11,-12.02 -4.37,-18.09 2.91,6.02 5,12.4 7.8,18.48 1.78,-5.88 2.96,-11.92 4.59,-17.84 0.42,5.93 -0.8,11.8 -0.89,17.72 4.5,-5.8 8.16,-12.22 12.83,-17.89 -2.55,5.67 -5.63,11.09 -8.18,16.76 6.6,-4.4 12.82,-9.35 19.49,-13.65 -6.63,9.15 -13.45,18.17 -20.15,27.26 -3.29,4.97 -7.91,9.2 -9.79,14.98 -3.44,9.31 -6.85,18.62 -10.32,27.91 -0.64,1.84 -1.83,3.5 -3.71,4.2 -7.02,2.99 -14.19,5.6 -21.23,8.55 -2.92,1.24 -4.76,4 -7.36,5.69 -6.49,1.27 -13.18,1.31 -19.65,2.68 6.54,0.79 13.16,-0.14 19.72,0.46 3.74,1.07 7.26,2.82 10.93,4.15 2.87,1.19 6.19,2.15 8.03,4.89 1.18,1.64 1.22,3.73 1.51,5.66 2.77,3.21 7.24,6.11 6.84,10.9 -0.25,3.37 -3.55,4.99 -6.23,6.21 1.95,-3.48 -1.52,-9.94 -5.55,-6.57 1.14,1.85 2.3,3.71 3.4,5.6 -2.87,0.37 -5.8,-0.07 -8.06,-1.96 -5.3,-0.07 -10.61,-0.16 -15.9,0.04 3.19,0.93 6.48,1.43 9.75,2.06 -9.92,12.11 -20.4,23.74 -30.26,35.89 3.81,-2.73 7.07,-6.13 10.63,-9.16 0.12,6.1 -0.94,12.12 -0.1,18.21 3.38,2.98 6.75,6 10.43,8.63 1.9,1.27 2.86,3.43 4.14,5.26 0.25,-2.74 -0.92,-5.1 -3.1,-6.7 0.78,-0.17 2.33,-0.5 3.1,-0.67 2.2,1.57 3.68,3.83 5.05,6.11 0.15,-2.7 -0.75,-5.73 -3.65,-6.54 9.82,-1.59 19.46,-4.12 29.27,-5.79 6.35,3.85 12.82,7.5 19.16,11.38 3.17,1.86 4.82,6.34 2.74,9.59 -2.02,3.19 -6.09,3.7 -9.53,3.83 -11.65,0.21 -23.28,1.46 -34.76,3.38 2.89,-2.79 6.02,-5.34 8.79,-8.27 -7.14,4.53 -14.24,9.24 -22.02,12.61 -6.85,2.88 -13.69,5.81 -20.45,8.89 4.23,-4.3 8.95,-8.12 12.95,-12.66 -11.37,8.25 -22.35,17.46 -35.51,22.76 -6.21,2.47 -12.14,6.82 -19.11,6.32 -5.2,-0.77 -10,-3.09 -14.95,-4.72 -3.26,-1.28 -6.75,-2.12 -9.73,-3.98 -2.45,-1.67 -2.65,-5.94 0.11,-7.4 3.67,-1.76 7.7,-2.6 11.54,-3.92 5.46,2.39 10.96,4.7 16.35,7.24 2.57,1.21 2.7,4.25 2.67,6.72 1.5,-2.87 0.28,-6.39 -2.5,-7.95 -8.13,-4.73 -16.31,-9.36 -24.45,-14.07 13.22,-4.07 26.47,-8 39.83,-11.58 1.38,0.51 2.78,1.03 4.21,1.53 -3.38,-2.82 -6.57,-6.07 -10.77,-7.63 -0.64,-1.68 -1.26,-3.36 -1.87,-5.04 -0.58,-0.27 -1.74,-0.79 -2.31,-1.06 -1.01,-3.99 -1.71,-8.05 -2.8,-12.02 0.02,4.32 0.53,8.61 0.89,12.92 -2.33,1.32 -4.67,2.61 -7,3.91 -0.08,-5.51 0.16,-11.03 -0.17,-16.54 -1.08,5.77 -1.43,11.65 -2.25,17.46 -3.12,0.57 -6.22,1.17 -9.32,1.76 0.99,-6.29 2.33,-12.54 3.09,-18.87 -2.52,6.23 -4.03,12.82 -6.1,19.2 -3.06,0.21 -6.12,0.42 -9.16,0.62 2.13,-6.85 4.84,-13.53 6.68,-20.48 -3.65,6.4 -6.44,13.23 -9.89,19.73 -0.4,1.37 -2,0.92 -3.03,1.16 -2.15,0.15 -4.29,0.26 -6.41,0.4 3.49,-7.1 7.32,-14.03 10.57,-21.24 -5.25,7.02 -9.85,14.51 -14.92,21.66 -3.19,0.46 -6.39,0.96 -9.56,1.45 5.15,-7.79 10.69,-15.33 15.6,-23.28 -6.37,6.65 -12.07,13.92 -18.18,20.81 -3.11,3.4 -5.71,7.3 -9.35,10.18 -0.58,-2.15 1.14,-3.77 2.09,-5.47 7.17,-10.86 13.82,-22.09 21.2,-32.79 12.66,-5.2 25.68,-9.55 38.4,-14.66 6.57,-2.06 12.18,-7.73 12.49,-14.88 -1.3,3.02 -2.24,6.38 -4.82,8.6 -3.7,3.56 -8.98,4.44 -13.6,6.24 -0.77,-1.54 -1.55,-3.08 -2.3,-4.62 1.71,-1.53 3.43,-3.08 5.03,-4.76 -4.46,2.51 -8.73,5.32 -13.1,7.97 -1,-1.96 -1.99,-3.93 -2.98,-5.89 5.71,-4.43 11.87,-8.31 17.26,-13.14 -8.93,4.99 -17.58,10.47 -26.41,15.64 -0.77,-2.1 -1.53,-4.19 -2.27,-6.29 8.08,-5.54 16.47,-10.64 24.33,-16.47 -10.69,5.42 -21.05,11.48 -31.62,17.12 -0.51,-1.93 -1,-3.85 -1.49,-5.77 8.98,-5.83 18.18,-11.35 27.04,-17.36 -11.23,5.15 -22.04,11.19 -33.16,16.6 -0.35,-2.31 -0.65,-4.61 -0.88,-6.93 9.1,-4.77 18.14,-9.66 27.15,-14.59 -11.45,3.93 -22.42,9.2 -33.68,13.68 -0.1,-2.22 -0.17,-4.43 -0.24,-6.65 9.05,-3.85 18.43,-6.9 27.38,-10.99 -11.17,2.55 -22.12,6.01 -33.22,8.87 0.1,-2.44 0.22,-4.88 0.34,-7.32 8.53,-2.13 17.23,-3.64 25.64,-6.2 -10.9,1.37 -21.77,2.96 -32.65,4.41 0.29,-2.11 0.62,-4.22 0.94,-6.33 7.99,-1.08 16.11,-1.32 24.03,-2.87 -11.1,-0.09 -22.2,0.41 -33.31,0.42 0.16,-1.79 0.32,-3.59 0.52,-5.38 8.83,-0.01 17.68,0.07 26.52,-0.25 -15.9,-1.9 -31.96,-2.38 -47.92,-3.84 2.74,-1.18 5.56,-2.12 8.39,-3.08 -6.7,-2.94 -13.67,-5.18 -20.39,-8.02 2.93,-0.32 5.87,-0.54 8.82,-0.81 -5.76,-3.91 -11.91,-7.23 -17.65,-11.19 4.26,0.08 8.53,0.38 12.79,0.58 -4.52,-4.66 -9.59,-8.74 -14.01,-13.49 2.37,0.37 4.71,0.82 7.08,1.24 -2.43,-3.71 -6.16,-6.65 -7.49,-11.01 -1.04,-3.06 -2.11,-6.11 -3.11,-9.18 2.62,2.53 4.41,5.83 7.16,8.23 4.48,2.75 9.08,5.31 13.73,7.78 -3.41,-6.18 -9.38,-11.2 -10.3,-18.51 -0.74,-3.37 -1.55,-6.72 -2.18,-10.11 3.74,4.49 5.89,10.34 10.8,13.78 3.77,2.96 7.4,6.1 11.21,9.02 -3.04,-7.37 -9.22,-13.6 -9.59,-21.89 -0.63,-4.45 -1.54,-8.86 -1.85,-13.34 3.33,5.33 5.5,11.36 9.03,16.55 5.73,4.93 11.5,9.85 17.52,14.43 -3.6,-6.32 -7.69,-12.34 -11.45,-18.57 -1,-1.48 -0.99,-3.32 -1.23,-5.01 m 9.7,9.51 c 3.39,6.47 7.57,12.49 11.25,18.79 1.03,2.5 3.85,2.96 6.09,3.9 6.87,2.46 13.53,5.52 20.52,7.68 -7.34,-4.76 -15.82,-7.47 -23.32,-11.91 -5.17,-5.88 -9.12,-12.79 -14.54,-18.46 m -10.82,9.21 c 3.37,5.41 7.25,10.52 11.14,15.56 3.77,1.8 7.9,2.7 11.82,4.12 5.24,1.6 10.33,3.78 15.71,4.9 -8.05,-4.14 -16.76,-6.85 -24.95,-10.69 -4.97,-4.2 -8.71,-9.71 -13.72,-13.89 m -11.88,5.96 c 4.43,5.65 9.03,11.23 13.93,16.46 10.76,2.93 21.56,5.93 32.49,8.16 -9.94,-4.32 -20.72,-6.51 -30.76,-10.57 -5.44,-4.42 -9.94,-9.96 -15.66,-14.05 m -7.57,8.22 c 4.67,5.55 9.98,10.59 15.19,15.63 12.56,2.94 25.2,5.8 37.91,8.08 -11.82,-4.22 -24.25,-6.6 -36.18,-10.47 -5.9,-4.07 -10.97,-9.24 -16.92,-13.24 m 61.28,17.23 c -0.39,-1.29 -0.79,-2.56 -1.2,-3.83 -0.13,2.21 -0.12,4.42 -0.1,6.64 4.49,-2.9 9.23,-5.46 13.45,-8.76 -4.24,1.59 -8.11,3.95 -12.15,5.95 m 2.01,9.03 c -0.24,-0.94 -0.74,-2.82 -0.99,-3.76 -0.37,2.16 -0.37,4.35 -0.31,6.53 5.71,-3.59 11.73,-6.77 17.09,-10.89 -5.42,2.4 -10.52,5.43 -15.79,8.12 m -60.76,-6.8 c 6.15,2.83 12.57,5.46 19.37,6.18 10.23,1.55 20.45,3.13 30.68,4.7 l 0.17,-0.77 c -16.76,-3.27 -33.41,-7.16 -50.22,-10.11 m 65.09,14.7 c -0.12,-0.72 -0.35,-2.17 -0.47,-2.89 -0.18,0.02 -0.56,0.05 -0.74,0.06 0.03,1.84 0.06,3.68 0.12,5.52 6,-3.86 12.37,-7.22 17.98,-11.65 -5.79,2.67 -11.23,6.04 -16.89,8.96 m -51.39,-3.68 c 6.79,2.82 14.01,4.87 21.41,5.14 6.29,0.23 12.59,1.82 18.88,1.14 -13.38,-2.32 -26.83,-4.49 -40.29,-6.28 m 57.96,10.35 c -0.34,-1.32 -0.69,-2.62 -1.05,-3.92 -0.34,2.21 -0.34,4.45 -0.31,6.69 6.01,-3.66 12.23,-7.02 17.91,-11.19 -5.67,2.5 -11.05,5.6 -16.55,8.42 m 8.16,5.73 c -0.38,-1.31 -0.74,-2.6 -1.14,-3.89 -0.16,2.22 -0.22,4.45 -0.24,6.67 5.39,-3.32 10.99,-6.38 16.05,-10.21 -5.03,2.19 -9.79,4.94 -14.67,7.43 m 8.72,5.59 c -0.25,-1.02 -0.75,-3.08 -0.99,-4.1 -0.33,2.26 -0.39,4.56 -0.4,6.85 4.52,-2.88 9.34,-5.35 13.47,-8.78 -4.17,1.71 -8.08,3.98 -12.08,6.03 m 8.59,5.22 c -0.42,-1.17 -0.79,-2.34 -1.2,-3.5 -0.1,2.1 -0.12,4.2 -0.11,6.3 3.46,-2.21 7.02,-4.29 10.22,-6.88 -3.05,1.19 -5.98,2.65 -8.91,4.08 m 47.67,0.98 c -0.18,0.86 0.35,1.97 1.06,2.47 1.05,-0.38 1.86,-1.07 2.42,-2.07 -0.44,-1.28 -2.56,-0.93 -3.48,-0.4 m 12.23,-0.02 c 0.57,0.29 1.72,0.85 2.29,1.13 -0.36,0.84 -0.7,1.67 -1.03,2.51 1.58,-1.24 3.15,-2.51 4.69,-3.83 -2.01,0.03 -3.97,0.08 -5.95,0.19 m -54.26,7.09 c 2.72,-1.58 5.43,-3.22 7.84,-5.26 -2.19,0.78 -4.31,1.71 -6.41,2.64 -0.25,-0.7 -0.73,-2.1 -0.97,-2.8 -0.19,1.81 -0.34,3.61 -0.46,5.42 m 66.74,-5.12 c 0.1,0.8 0.31,2.38 0.42,3.18 1.08,-0.89 2.18,-1.77 3.3,-2.64 -1.26,-0.17 -2.5,-0.35 -3.72,-0.54 m -36.65,3.22 c 0.88,0.53 1.77,1.07 2.68,1.61 -0.48,0.95 -0.94,1.91 -1.39,2.87 1.92,-1.41 3.8,-2.87 5.63,-4.41 -2.32,-0.05 -4.62,-0.07 -6.92,-0.07 m 51.35,2.65 c 0.12,2.35 3.99,3.04 4.98,0.91 0.4,-0.88 0.13,-1.9 0.2,-2.83 -0.55,0.62 -1.67,1.86 -2.22,2.48 -2.34,-0.21 -0.83,-2.6 -0.78,-3.91 -1.08,0.84 -2.71,1.67 -2.18,3.35 m -37.1,-1 c 0.7,0.37 2.1,1.1 2.8,1.47 -0.36,0.7 -1.07,2.11 -1.43,2.82 1.94,-1.35 3.8,-2.8 5.63,-4.31 -2.34,-0.14 -4.68,-0.12 -7,0.02 m -37.5,3.4 c -0.39,-0.92 -0.76,-1.83 -1.12,-2.74 -0.1,1.78 -0.21,3.57 -0.3,5.37 3.12,-1.85 6.27,-3.67 9.14,-5.9 -2.64,0.92 -5.2,2.07 -7.72,3.27 m 50.27,-0.89 c 0.91,0.51 1.83,1.02 2.76,1.53 -0.46,0.94 -0.87,1.89 -1.29,2.83 1.87,-1.37 3.72,-2.8 5.49,-4.33 -2.33,-0.05 -4.65,-0.06 -6.96,-0.03 m 33.7,1.59 c -0.27,0.33 -0.81,1 -1.08,1.33 3.29,2.29 6.81,4.62 7.71,8.84 0.42,-4.68 -3.58,-7.43 -6.63,-10.17 m -81.27,5.45 c -0.19,-0.44 -0.59,-1.32 -0.79,-1.75 -0.15,1.42 -0.29,2.86 -0.42,4.29 2.42,-1.61 4.85,-3.24 7.08,-5.12 -2.01,0.74 -3.95,1.65 -5.87,2.58 m 22.56,-0.71 c 1.13,0.45 2.24,0.87 3.41,1.31 -0.42,1.23 -0.83,2.47 -1.21,3.72 2.07,-2 4.06,-4.09 6.02,-6.2 -2.76,0.26 -5.51,0.66 -8.22,1.17 m -11.35,1.14 c 0.63,0.2 1.88,0.61 2.5,0.82 -0.21,0.65 -0.63,1.95 -0.84,2.6 1.42,-1.45 2.82,-2.93 4.2,-4.43 -1.97,0.32 -3.92,0.65 -5.86,1.01 m 25.4,0.91 c 1.15,0.34 2.27,0.66 3.47,0.99 -0.37,1.21 -0.72,2.42 -1.06,3.64 1.93,-1.97 3.74,-4.05 5.43,-6.23 -2.64,0.44 -5.25,0.99 -7.84,1.6 m 35.44,-0.76 c -1.23,1.13 -0.79,2.74 -0.26,4.08 0.34,-2.87 2.65,-3.7 5.25,-3.68 -1.54,-0.74 -3.51,-1.91 -4.99,-0.4 m -23.6,4.03 c 0.6,0.27 1.81,0.81 2.41,1.08 -0.27,0.84 -0.5,1.69 -0.74,2.54 1.4,-1.31 2.81,-2.62 4.22,-3.93 -1.98,0.09 -3.94,0.2 -5.89,0.31 m -47.96,1.5 c -0.11,1.11 -0.2,2.22 -0.28,3.34 1.74,-1.28 3.46,-2.59 5.17,-3.92 -1.61,0.43 -3.23,0.8 -4.89,0.58 m 11.78,4.06 c 0.93,0.3 1.86,0.61 2.82,0.91 -0.15,0.7 -0.44,2.09 -0.59,2.78 1.53,-1.65 2.99,-3.35 4.43,-5.09 -2.23,0.41 -4.46,0.89 -6.66,1.4 m 12.21,1.42 c 0.94,0.17 2.82,0.49 3.76,0.66 -0.13,0.88 -0.4,2.64 -0.53,3.53 1.83,-2.06 3.44,-4.31 4.95,-6.61 -2.77,0.67 -5.5,1.47 -8.18,2.42 m 13.34,1.42 c 0.83,0.16 2.5,0.47 3.34,0.63 -0.3,1.06 -0.58,2.12 -0.83,3.18 1.61,-1.76 3.14,-3.61 4.61,-5.5 -2.4,0.49 -4.78,1.04 -7.12,1.69 m 13.19,2.15 c 0.36,0.85 0.74,1.7 1.14,2.56 0.86,-1.02 1.75,-2.03 2.64,-3.04 -1.27,0.16 -2.53,0.32 -3.78,0.48 m -37.02,5.49 c 0.75,0.14 2.25,0.42 3,0.57 -0.2,1.07 -0.37,2.15 -0.53,3.23 1.46,-1.86 2.89,-3.76 4.27,-5.71 -2.28,0.57 -4.53,1.19 -6.74,1.91 m 13.36,2.82 c 1.25,0.18 2.51,0.36 3.78,0.52 -0.19,1.25 -0.35,2.49 -0.5,3.74 1.71,-2.24 3.3,-4.58 4.76,-7 -2.72,0.8 -5.41,1.71 -8.04,2.74 m 14.69,0.07 c 0.6,0.27 1.8,0.81 2.4,1.08 l -0.72,2.4 c 1.39,-1.43 2.77,-2.89 4.13,-4.36 -1.95,0.27 -3.89,0.57 -5.81,0.88 m -36.85,1.73 c 1.25,0.78 1.91,1.89 2,3.34 1.12,-1.16 2.3,-2.27 3.49,-3.37 -1.84,0.03 -3.67,0.06 -5.49,0.03 m 12.62,5.12 c 0.73,0.19 2.2,0.56 2.93,0.75 -0.27,1.04 -0.52,2.08 -0.75,3.13 1.6,-1.74 3.14,-3.55 4.6,-5.42 -2.29,0.42 -4.56,0.93 -6.78,1.54 m -19.4,1.34 c -0.34,0.88 -0.16,1.67 0.54,2.38 1.18,0.29 2.42,-0.91 2.8,-1.97 -0.72,-0.94 -2.37,-0.79 -3.34,-0.41 m 35.55,0.95 c 0.64,0.24 1.92,0.71 2.57,0.94 -0.2,0.65 -0.59,1.94 -0.79,2.59 1.37,-1.45 2.74,-2.92 4.09,-4.4 -1.96,0.27 -3.93,0.56 -5.87,0.87 m -26.15,0.84 c 0.65,0.32 1.96,0.96 2.61,1.28 -0.28,0.64 -0.84,1.93 -1.12,2.57 1.56,-1.24 3.15,-2.48 4.7,-3.75 -2.07,-0.05 -4.15,-0.08 -6.19,-0.1 m 17.2,4.64 c 0.39,0.87 0.8,1.74 1.23,2.62 0.85,-1.05 1.72,-2.1 2.6,-3.14 -1.29,0.17 -2.57,0.34 -3.83,0.52 m -45.87,0.07 c 0.46,1.08 0.62,2.21 0.29,3.35 1.16,-1.12 2.4,-2.18 3.66,-3.22 -1.33,-0.04 -2.65,-0.08 -3.95,-0.13 m 11.01,0 c 0.65,1 0.8,2.07 0.46,3.19 1.19,-1.05 2.43,-2.05 3.69,-3.04 -1.4,-0.05 -2.78,-0.1 -4.15,-0.15 m 11.32,2.38 c -0.13,0.86 0.34,2.01 1.07,2.51 1.07,-0.36 1.87,-1.05 2.4,-2.07 -0.51,-1.21 -2.53,-0.96 -3.47,-0.44 m 11.93,0.6 c 0.25,0.84 0.75,2.52 1,3.36 1.14,-1.11 2.35,-2.15 3.57,-3.18 -1.54,-0.05 -3.06,-0.11 -4.57,-0.18 m 6.63,5.25 c 0.76,4.97 1.53,9.94 2.58,14.85 2.25,5.45 8.46,7.74 10.97,13.04 0.39,-2.91 -1.04,-5.38 -3.53,-6.81 0.94,-0.12 2.83,-0.35 3.77,-0.47 1.92,1.64 3.43,3.68 5.01,5.65 0.03,-2.62 -1.17,-4.9 -3.36,-6.3 2.7,-0.59 5.39,-1.26 8.1,-1.92 -4.19,-1.92 -7.91,-5.63 -12.83,-5.16 -3.64,-4.24 -6.98,-8.72 -10.71,-12.88 m 49.33,18.57 c 6.99,-0.7 14.1,-1.71 20.75,-4.05 -7,0.45 -14.25,1.36 -20.75,4.05 m -18.51,-2.96 c 2.6,1.69 4.41,4.2 6.13,6.73 0.41,-3.68 -2.28,-7.01 -6.13,-6.73 m 19.78,7.02 c 3.43,0.52 6.87,-0.21 10.28,-0.69 6.08,-1.01 12.3,-1.48 18.25,-3.17 -9.63,-0.18 -19.13,2.01 -28.53,3.86 m -47.83,0.13 c 2.41,1.64 4.22,3.93 5.79,6.37 0.52,-3.53 -2.11,-6.88 -5.79,-6.37 m 25.58,5.13 c 5.57,-0.69 11.23,-1.72 16.43,-3.94 -5.61,0.39 -11.42,1.27 -16.43,3.94 m -42.08,6.6 c -4.75,1.68 -9.6,3.18 -14.08,5.5 5.02,-0.59 9.68,-2.79 14.53,-4.17 5.46,-1.97 11.19,-3.32 16.41,-5.9 -5.81,0.69 -11.32,2.8 -16.86,4.57 m 16.32,1.17 c -7.47,2.86 -15.26,5.17 -22.18,9.23 6.62,-1.89 12.97,-4.6 19.48,-6.83 7.43,-2.89 15.17,-4.99 22.45,-8.25 -6.8,1.08 -13.24,3.7 -19.75,5.85 m -46.01,18.18 c 5.9,1.93 11.74,4.06 17.72,5.77 -4.4,-2.48 -9.12,-4.31 -13.7,-6.4 1.95,-1.07 3.91,-2.12 5.79,-3.31 -3.23,1.17 -7.74,0.81 -9.81,3.94 z" id="path2" />
  </g>
  <g transform="translate(-96.781934,-50.099397)">
    <path fill="#110f0d" d="m 63.62,50.5 c 97.51,0.01 195.01,-0.03 292.52,0.02 -0.03,35.85 -0.01,71.69 -0.02,107.54 -1.61,-0.06 -3.22,-0.13 -4.83,-0.22 -4.21,-10.78 -8.56,-21.49 -12.85,-32.24 -5.47,-13.47 -10.69,-27.19 -18.54,-39.51 -5.25,-8.19 -11.82,-15.74 -20.16,-20.9 -9.49,-6.03 -20.71,-8.74 -31.83,-9.52 -10.2,-0.71 -20.44,-0.32 -30.66,-0.42 0.01,90.28 -0.01,180.56 0.01,270.83 0.09,10.9 1.42,22.53 7.98,31.61 6.77,9.25 17.92,14.1 28.93,16.07 4.66,0.87 9.36,1.53 14.04,2.31 -0.04,1.56 -0.08,3.12 -0.11,4.68 -52.21,-0.02 -104.43,0.03 -156.64,-0.02 0.04,-1.56 0.07,-3.12 0.11,-4.67 10.11,-1.69 20.64,-2.61 29.85,-7.5 8.66,-4.13 15.47,-11.92 18.19,-21.15 2.83,-8.5 2.94,-17.57 2.89,-26.43 0,-88.57 -0.02,-177.15 0.01,-265.72 -12.14,0.13 -24.33,-0.53 -36.41,1 -12.14,1.57 -24.13,6.17 -33.29,14.47 -11.89,10.69 -19.13,25.34 -25.36,39.8 -6.56,15.76 -12.64,31.71 -19.11,47.5 -1.58,-0.02 -3.15,-0.03 -4.72,-0.05 0.01,-35.82 0,-71.65 0,-107.48 z" id="path5" />
    <path fill="#110f0d" d="m 1302.26,50.49 c 54.24,0.01 108.49,0.01 162.73,0 0,0.62 0.01,1.87 0.02,2.49 -10.56,2.16 -21.48,3.75 -31.09,8.94 -7.24,3.67 -13.39,9.56 -16.95,16.88 -4.22,8.75 -4.9,18.62 -4.96,28.18 0.07,70.68 -0.02,141.37 0.04,212.06 0.15,10.59 -0.48,21.23 0.67,31.78 1.16,10.16 5.48,20.34 13.71,26.75 10.91,8.86 25.19,11.06 38.56,13.69 0,0.59 0.01,1.78 0.01,2.37 -54.25,-0.01 -108.5,-0.01 -162.75,-0.01 0,-0.58 0,-1.76 0,-2.35 10.07,-2.12 20.51,-3.52 29.81,-8.22 8.93,-4.18 16.75,-11.56 19.86,-21.09 2.74,-7.33 3.27,-15.23 3.33,-22.98 0,-72.33 0,-144.66 0,-217 -0.21,-10.68 0.71,-21.49 -1.32,-32.05 -1.54,-9.12 -6.21,-17.72 -13.55,-23.44 -10.81,-8.72 -24.93,-10.91 -38.14,-13.52 0,-0.62 0.02,-1.86 0.02,-2.48 z" id="path7" />
    <path fill="#110f0d" d="m 1474.56,50.52 c 39.77,-0.06 79.54,0 119.32,-0.03 10.75,19.15 24.57,36.3 38.35,53.32 22.52,27.41 45.63,54.33 68.48,81.46 34.22,40.35 68.34,80.79 102.55,121.15 -0.52,-57.16 -0.96,-114.32 -1.49,-171.48 -0.05,-17.23 -0.86,-35.03 -7.73,-51.1 -4.01,-9.51 -11.22,-17.73 -20.49,-22.37 -11.01,-5.6 -23.51,-6.8 -35.56,-8.47 0.01,-0.63 0.02,-1.89 0.03,-2.51 84.65,0.02 169.31,0 253.96,0.01 21.99,0.11 43.98,-0.3 65.96,0.32 26.91,1.2 54.04,5.76 78.87,16.51 32.49,13.22 61.17,36.56 79.09,66.9 18.9,31.52 25.95,69.45 22.05,105.82 -3.76,35.64 -18.62,70.41 -43.5,96.42 -26.07,28.08 -62.09,45.82 -99.54,52.74 -27.94,5.8 -56.58,4.21 -84.91,4.41 -45.15,-0.02 -90.31,0.04 -135.46,-0.03 0.1,-0.56 0.3,-1.69 0.39,-2.25 7.67,-1.61 15.58,-2.27 23.04,-4.82 9.34,-2.98 18.3,-8.49 23.4,-17.09 5.1,-8.86 6.39,-19.32 6.37,-29.38 0.01,-72.69 0.03,-145.38 -0.01,-218.07 -0.17,-18.25 -3.14,-38.07 -15.85,-52.09 -11.43,-12.76 -29.34,-17.22 -45.93,-16.87 -13.25,0.09 -26.99,3.06 -37.72,11.19 -11.37,8.51 -17.68,22.16 -20.13,35.86 -2.45,12.49 -1.92,25.28 -1.97,37.94 -0.01,87.66 -0.01,175.32 -0.01,262.98 -0.81,0.01 -2.45,0.03 -3.27,0.04 -50.34,-58.94 -100.29,-118.21 -150.51,-177.27 -33.02,-38.95 -66.07,-77.88 -99.09,-116.83 0.47,57.71 0.97,115.42 1.42,173.13 0.09,21.96 0.65,44.32 7.08,65.5 3.17,10.26 8.07,20.27 15.98,27.73 11.06,10.79 26.66,14.27 41.14,17.96 0.01,0.59 0.01,1.78 0.01,2.37 -44.29,0.01 -88.58,0 -132.87,0.01 0,-0.59 -0.01,-1.77 -0.01,-2.35 11.45,-2.96 23.34,-5.45 33.48,-11.83 12.18,-7.58 19.91,-20.53 23.97,-34.01 6.59,-21.8 7.04,-44.81 6.84,-67.41 0.01,-57.79 -0.07,-115.58 0.06,-173.36 -12,-13.33 -24.25,-26.71 -39.06,-36.97 -10.25,-7.06 -22,-11.83 -34.21,-14.17 -1.85,-0.07 -2.78,-1.12 -2.52,-3.01 M 1984.62,53 c 0,95 0.01,190 0,285 0.01,9.37 0.39,18.87 3.02,27.92 2.04,8.72 7.73,16.67 15.78,20.78 8.74,4.66 18.95,4.64 28.6,4.56 23.14,0.29 46.72,-3.38 67.69,-13.5 18.34,-8.79 34.12,-22.62 45.56,-39.4 12.13,-17.48 19.61,-37.79 24.17,-58.47 4.46,-20.64 6.08,-41.83 5.72,-62.92 -0.43,-23.28 -3.41,-46.67 -10.71,-68.84 -6.25,-19.1 -15.82,-37.3 -29.2,-52.37 -12.67,-14.19 -28.62,-25.44 -46.35,-32.36 -18.66,-7.41 -38.85,-10.48 -58.87,-10.4 -15.14,0 -30.27,0 -45.41,0 z" id="path9" />
    <path fill="#110f0d" d="m 2250.56,50.52 c 96.64,-0.06 193.29,-0.01 289.94,-0.02 0.01,32.36 0,64.73 0.01,97.1 -0.6,0.02 -1.8,0.05 -2.4,0.07 -6.6,-11.7 -13.06,-23.47 -19.53,-35.23 -4.17,-7.39 -8.16,-14.92 -13.37,-21.64 -7.92,-10.76 -18.36,-19.74 -30.43,-25.53 -13.92,-6.86 -29.41,-9.61 -44.72,-11.11 -23.14,-1.89 -46.37,-0.92 -69.56,-1.16 -0.01,54.09 0.11,108.19 0,162.28 17.47,-0.51 34.98,-0.21 52.41,-1.71 10.66,-0.99 21.71,-2.82 30.89,-8.7 9.23,-5.89 15.52,-15.34 19.96,-25.16 5.7,-12.35 9.33,-25.49 13.43,-38.42 0.62,-0.01 1.85,-0.03 2.47,-0.04 0,50.16 -0.03,100.31 0.01,150.47 -0.61,0.01 -1.83,0.02 -2.44,0.02 -4.77,-14.27 -8.77,-28.89 -15.67,-42.34 -5.03,-9.98 -12.61,-19.22 -23.06,-23.78 -13.01,-5.81 -27.59,-5.99 -41.58,-6.66 -12.14,-0.36 -24.29,-0.42 -36.42,-0.74 0.07,40.61 0.02,81.22 0.04,121.82 0.14,11.19 1.23,22.79 6.64,32.81 4.02,7.24 10.9,12.66 18.72,15.32 11.24,3.98 23.35,2.94 35.07,3.08 20.32,-0.1 41.18,-1.99 59.97,-10.32 11.47,-5.04 21.77,-12.61 30.15,-21.91 7.68,-8.22 13.73,-17.77 19.41,-27.43 6.54,-11.11 13.25,-22.11 19.73,-33.25 0.6,-1.4 1.74,-2.04 3.41,-1.94 0.08,32.41 -0.04,64.82 -0.02,97.22 -101.02,-0.02 -202.05,0.05 -303.08,-0.03 0.1,-0.57 0.3,-1.71 0.41,-2.28 8.62,-1.7 17.55,-2.32 25.8,-5.62 9.32,-3.31 17.57,-10.02 21.92,-19 3.97,-8.62 5.03,-18.23 4.99,-27.62 0,-75.03 0,-150.05 -0.01,-225.08 -0.14,-10.63 0.7,-21.62 -2.94,-31.82 -2.55,-8.39 -9,-15.18 -16.58,-19.35 -10.21,-5.74 -21.97,-7.29 -33.21,-9.89 -0.09,-0.6 -0.27,-1.81 -0.36,-2.41 z" id="path11" />
    <path fill="#110f0d" d="m 2593.98,50.48 c 44.66,0.04 89.32,0 133.98,0.02 23.97,-0.36 48.39,1.09 71.19,9.12 18.97,6.37 36.85,16.95 50.23,31.99 13.89,15.42 22.41,35.69 23.17,56.48 1.59,24.76 -7.31,50.04 -24.42,68.05 -11.72,12.99 -27.07,22.21 -43.19,28.69 -20.94,8.14 -43.56,11.22 -65.93,11.05 -6.06,-0.01 -12.1,0 -18.13,-0.01 0,-0.7 -0.01,-2.12 -0.01,-2.83 22.56,0.25 46.09,-6.65 62.29,-22.95 15.43,-14.99 23.4,-36.11 26.11,-57.13 2.68,-22.81 1.3,-46.6 -7.2,-68.13 -6.21,-15.34 -16.55,-29.33 -30.64,-38.26 -9.76,-6.44 -21.03,-10.34 -32.52,-12.16 -11.49,-1.95 -23.19,-1.29 -34.79,-1.41 0.07,94.35 0,188.69 0.07,283.03 0.22,10.82 0.39,22.3 5.79,32.02 4.43,7.71 12.57,12.32 20.74,15.19 10.47,3.73 21.43,5.72 32.28,8.01 0,0.59 -0.01,1.78 -0.01,2.38 -56.37,-0.01 -112.74,-0.01 -169.11,-0.01 0,-0.59 0,-1.77 0,-2.36 11.13,-2.25 22.7,-3.96 32.71,-9.71 8.3,-4.63 15.05,-12.39 17.59,-21.65 3.02,-9.32 2.56,-19.23 2.62,-28.89 -0.06,-73.7 0.03,-147.4 -0.05,-221.09 0.24,-12.12 -0.25,-25.16 -7.27,-35.54 -7.08,-10.51 -19.46,-15.75 -31.41,-18.42 -4.74,-1.09 -9.5,-1.98 -14.24,-2.96 0.04,-0.63 0.11,-1.89 0.15,-2.52 z" id="path13" />
    <path fill="#110f0d" d="m 2886.31,50.52 c 96.65,-0.05 193.3,-0.02 289.94,-0.02 0,32.37 0,64.74 0,97.11 -0.85,0 -1.66,0.01 -2.43,0.02 -9.02,-15.85 -17.46,-32.02 -26.68,-47.76 -9.62,-16.01 -23.71,-29.69 -41.21,-36.69 -22.06,-9.08 -46.34,-9.97 -69.87,-10.18 -13.23,0.01 -26.46,-0.01 -39.69,0.01 0.02,54.09 -0.01,108.18 0.02,162.27 14.56,-0.41 29.14,-0.31 43.7,-1.1 10.11,-0.6 20.37,-1.42 30.01,-4.75 9.27,-3.09 17.36,-9.46 22.67,-17.66 10.38,-15.12 14.42,-33.3 20.34,-50.37 0.57,-0.08 1.71,-0.24 2.28,-0.32 -0.02,50.17 0.15,100.35 -0.09,150.51 -0.56,0.08 -1.68,0.24 -2.24,0.32 -5.68,-16.98 -10.2,-34.73 -20.08,-49.89 -4.94,-7.39 -11.77,-13.71 -20.1,-17.02 -10.76,-4.46 -22.56,-5.11 -34.04,-5.81 -14.15,-0.6 -28.31,-0.59 -42.46,-0.97 0,40.94 -0.02,81.88 0.01,122.82 0.05,11.38 1.5,23.22 7.42,33.16 5.04,8.34 14.01,13.64 23.42,15.54 10.1,2.19 20.5,1.35 30.76,1.49 22.65,-0.15 46.18,-2.79 66.24,-14.08 15.93,-8.79 28.23,-22.9 37.63,-38.26 8.51,-13.97 16.64,-28.18 25.26,-42.08 0.57,-0.09 1.72,-0.29 2.29,-0.39 0.04,32.4 -0.05,64.8 -0.03,97.2 -101.03,-0.01 -202.06,0.04 -303.08,-0.03 0.09,-0.57 0.29,-1.72 0.39,-2.3 9.19,-1.73 18.73,-2.43 27.41,-6.22 10.14,-4.01 18.81,-12.29 22.15,-22.81 3.17,-9.06 3.32,-18.78 3.25,-28.27 -0.01,-72.01 0,-144.01 0,-216.02 -0.23,-12.04 1,-24.51 -3.07,-36.08 -2.48,-8.01 -8.63,-14.45 -15.74,-18.63 -10.39,-6.11 -22.5,-7.67 -34.03,-10.33 -0.08,-0.6 -0.26,-1.81 -0.35,-2.41 z" id="path15" />
    <path fill="#110f0d" d="m 3214.41,50.49 c 39.7,0.02 79.41,0 119.11,0.01 10.67,19.03 24.38,36.09 38.09,52.99 23.67,28.89 48.06,57.18 72.1,85.76 33.06,39.06 66.1,78.14 99.18,117.19 -0.49,-53.48 -0.91,-106.96 -1.39,-160.44 -0.16,-15.5 0.22,-31.17 -2.95,-46.43 -2.02,-9.5 -5.3,-18.98 -11.37,-26.68 -5.75,-7.39 -14.11,-12.41 -23,-15.07 -8.05,-2.32 -16.38,-3.52 -24.66,-4.57 -1.69,0 -2.38,-0.91 -2.08,-2.73 83.54,-0.06 167.08,-0.01 250.61,-0.02 22.97,0.12 45.94,-0.29 68.9,0.3 27.11,1.14 54.45,5.71 79.48,16.52 33.28,13.44 62.4,37.66 80.35,68.88 33.15,57.83 28.41,135.27 -12.28,188.21 -19.72,25.55 -47.04,44.83 -77.33,55.82 -26.5,9.77 -54.93,13.61 -83.09,13.4 -56.6,-0.03 -113.19,0.04 -169.78,-0.04 0.1,-0.57 0.28,-1.72 0.38,-2.29 7.95,-1.58 16.13,-2.31 23.83,-5.06 9.08,-3.02 17.74,-8.59 22.62,-17.04 5.13,-8.77 6.2,-19.2 6.24,-29.17 0.02,-71.34 -0.01,-142.69 0.01,-214.03 0.16,-19.21 -2.18,-40.18 -15.17,-55.34 -11.78,-13.74 -30.85,-18.29 -48.29,-17.6 -16.28,0.23 -33.61,5.66 -43.98,18.87 -6.75,8.34 -10.54,18.73 -12.36,29.21 -1.95,10.81 -1.83,21.84 -1.8,32.79 0.04,89.06 -0.06,178.13 0.03,267.19 -1.35,-0.14 -2.65,-0.29 -3.88,-0.45 -50.66,-60.18 -101.74,-120.01 -152.59,-180.03 -32.14,-37.92 -64.33,-75.79 -96.47,-113.71 0.47,56.01 0.94,112.03 1.39,168.05 0.09,23.44 0.17,47.33 6.91,70 3.84,12.97 10.82,25.68 22.35,33.31 9.1,6.28 19.98,9.03 30.53,11.82 2,0.68 5.31,0.38 4.77,3.48 -44.43,0.06 -88.86,0.06 -133.3,0 -0.59,-2.95 2.48,-2.78 4.41,-3.4 11.24,-2.88 22.94,-5.8 32.35,-12.96 11.74,-8.62 18.52,-22.33 22.03,-36.17 6.77,-25.45 5.51,-51.99 5.61,-78.06 -0.17,-52.86 0.26,-105.76 -0.2,-158.6 -12.66,-13.99 -25.57,-28.22 -41.54,-38.5 -10.22,-6.7 -21.96,-10.59 -33.86,-12.98 0.02,-0.61 0.07,-1.82 0.09,-2.43 M 3724.25,53 c 0.01,95.35 0,190.7 0,286.05 -0.02,10.77 0.77,21.75 4.65,31.9 3.08,7.76 9.39,14.14 17.2,17.16 9.79,3.94 20.56,3.05 30.9,3.12 16.46,-0.18 33,-2.55 48.61,-7.86 17.96,-6.04 34.47,-16.47 47.43,-30.32 14.99,-15.7 25.12,-35.49 31.53,-56.1 7.13,-22.91 9.95,-46.98 10.25,-70.91 0.23,-23.54 -1.97,-47.25 -8.34,-69.97 -5.41,-19.43 -13.91,-38.24 -26.47,-54.13 -11.83,-15.35 -27.5,-27.65 -45.05,-35.85 -20.29,-9.27 -42.76,-13.15 -64.98,-13.09 -15.25,0 -30.49,-0.01 -45.73,0 z" id="path17" />
    <path fill="#110f0d" d="m 3990.39,50.49 c 96.56,0 193.13,0.03 289.69,-0.02 0.12,32.35 -0.03,64.69 0.08,97.03 -0.86,0.06 -1.65,0.13 -2.39,0.18 -9.02,-15.82 -17.48,-31.97 -26.69,-47.68 -9.76,-16.34 -24.22,-30.24 -42.13,-37.17 -20.88,-8.36 -43.74,-9.51 -65.97,-9.82 -14.25,-0.02 -28.49,-0.01 -42.73,-0.01 0,54.09 0,108.18 0,162.27 14.59,-0.39 29.21,-0.31 43.8,-1.09 10.15,-0.6 20.47,-1.44 30.15,-4.82 9.24,-3.14 17.28,-9.57 22.57,-17.76 10.27,-15.11 14.31,-33.19 20.24,-50.18 0.56,-0.09 1.69,-0.27 2.25,-0.36 0.08,50.19 -0.05,100.39 0.06,150.58 -0.6,0.04 -1.81,0.12 -2.41,0.16 -5.73,-16.93 -10.11,-34.72 -20.05,-49.82 -4.94,-7.34 -11.7,-13.63 -19.98,-16.95 -10.34,-4.33 -21.69,-5.06 -32.73,-5.77 -14.63,-0.69 -29.27,-0.64 -43.89,-1.04 -0.01,40.93 -0.02,81.85 0,122.77 0.04,11.18 1.46,22.76 7.07,32.63 4.58,7.91 12.68,13.31 21.45,15.56 10.82,2.88 22.12,1.91 33.21,2.05 22.36,-0.18 45.57,-2.74 65.46,-13.72 16.43,-8.98 29.19,-23.44 38.69,-39.37 7.54,-12.52 14.97,-25.11 22.51,-37.64 1.14,-1.83 1.97,-4.47 4.7,-4.09 0.06,32.4 0,64.8 0.03,97.21 -101.07,-0.01 -202.14,0.04 -303.2,-0.03 0.09,-0.57 0.28,-1.71 0.38,-2.29 9.44,-1.74 19.24,-2.52 28.13,-6.52 8.51,-3.49 15.78,-10.01 19.79,-18.35 3.89,-8.56 4.89,-18.09 4.9,-27.41 -0.01,-75.7 0,-151.39 0,-227.09 -0.04,-9.87 0.35,-20.03 -2.9,-29.49 -2.6,-8.65 -9.21,-15.7 -17.1,-19.86 -10.21,-5.54 -21.83,-7.22 -33.03,-9.62 0.01,-0.62 0.03,-1.85 0.04,-2.47 z" id="path19" />
    <path fill="#110f0d" d="m 4318.56,50.52 c 39.75,-0.08 79.5,0.03 119.25,-0.06 10.45,18.51 23.78,35.14 37.05,51.67 23.46,28.51 47.51,56.53 71.28,84.78 33.75,39.8 67.38,79.7 101.12,119.5 -0.52,-55.81 -0.94,-111.62 -1.47,-167.43 -0.17,-13.49 -1.24,-27.05 -4.55,-40.16 -3.5,-14.02 -10.74,-27.92 -23.25,-35.84 -10.7,-6.92 -23.63,-8.51 -35.99,-9.99 0,-0.62 0.01,-1.87 0.01,-2.5 43.95,0.01 87.91,0 131.87,0.01 -0.01,0.63 -0.01,1.88 -0.01,2.51 -7.94,1.08 -15.99,1.79 -23.62,4.33 -9.06,2.8 -17.49,8.02 -23.4,15.49 -6.91,8.26 -10.61,18.64 -13,29.01 -4.86,21.37 -3.44,43.43 -3.69,65.17 0.03,78 -0.07,155.99 0.03,233.98 -0.84,0.01 -2.52,0.02 -3.36,0.03 -83.35,-97.9 -166.36,-196.09 -249.58,-294.09 0.46,57.35 0.97,114.71 1.41,172.06 0.12,23.51 0.56,47.57 8.24,70.05 4.44,13.06 12.85,25.27 25.26,31.84 9.54,5.23 20.26,7.66 30.71,10.37 0,0.59 0.01,1.78 0.01,2.37 -44.26,0 -88.51,0 -132.75,0 0,-0.59 -0.01,-1.77 -0.01,-2.36 9.54,-2.48 19.3,-4.61 28.23,-8.96 9.02,-4.37 16.7,-11.49 21.78,-20.15 8.96,-15.12 11.65,-32.9 13.31,-50.13 1.66,-25.31 0.5,-50.7 0.85,-76.05 -0.05,-43.73 0.08,-87.47 -0.07,-131.2 -1.52,-2.43 -3.77,-4.26 -5.59,-6.41 -13.87,-14.97 -28.55,-30.2 -47.51,-38.59 -7.05,-3.36 -14.7,-5 -22.2,-6.86 -0.09,-0.6 -0.27,-1.79 -0.36,-2.39 z" id="path21" />
    <path fill="#110f0d" d="m 4732.5,50.5 c 101.29,0 202.58,-0.01 303.88,0 0,37.31 0.02,74.63 0.04,111.94 -0.61,-0.09 -1.81,-0.28 -2.41,-0.37 -7.68,-18.16 -14.35,-36.76 -22.39,-54.77 -7.44,-16.22 -16.96,-32.46 -32.11,-42.59 -13.29,-8.98 -29.68,-11.73 -45.43,-11.7 -7.09,-0.03 -14.15,0 -21.2,-0.01 0.05,93.33 0.02,186.66 0.04,279.99 -0.11,10.48 0.02,21.28 3.95,31.18 3.64,9.5 11.66,16.94 21.02,20.74 8.85,3.83 18.55,4.77 27.99,6.34 0,0.59 -0.01,1.78 -0.01,2.37 -54.25,0 -108.5,0 -162.74,0 -0.01,-0.59 -0.01,-1.78 -0.01,-2.37 9.12,-1.53 18.5,-2.42 27.14,-6 8.79,-3.37 16.48,-9.86 20.68,-18.37 4.09,-8.66 5.13,-18.38 5.09,-27.86 0,-95.34 0.02,-190.68 -0.03,-286.02 -13.65,0.23 -27.44,-0.84 -40.93,1.72 -14.18,2.45 -27.58,9.46 -37.25,20.17 -12.55,13.64 -20.12,30.88 -26.99,47.85 -4.73,11.73 -9.41,23.48 -14.07,35.23 -0.92,1.98 -1.25,5.05 -4.17,4.5 -0.13,-37.32 -0.06,-74.65 -0.09,-111.97 z" id="path23" />
    <path fill="#110f0d" d="m 375.5,50.5 c 27.06,0 54.12,-0.01 81.17,0 -0.01,47.37 0.04,94.73 -0.06,142.1 8.32,-13.34 19.97,-24.51 33.38,-32.66 13.01,-8.23 28.6,-12.45 44,-11.61 17.9,0.65 36.12,6.9 48.99,19.7 12.27,12.15 18.78,29.07 20.95,45.97 1.53,10.28 1.31,20.71 1.32,31.07 0,33.29 0.01,66.59 -0.01,99.88 -0.11,7.23 0.87,15.13 6.05,20.62 5.92,6.66 15.08,8.28 23.28,10.49 -0.04,1.55 -0.06,3.11 -0.08,4.68 -36.79,0.02 -73.57,0 -110.36,0.01 -0.01,-1.57 -0.02,-3.13 -0.01,-4.68 8.05,-2.17 16.96,-3.76 22.93,-10.11 4.74,-5.07 6.32,-12.26 6.32,-19.01 0.02,-29.96 0,-59.93 0.01,-89.89 -0.2,-14.76 1.06,-29.9 -3.38,-44.2 -3.28,-11.43 -10.52,-22.01 -20.96,-27.98 -12.29,-7.09 -27.52,-8.19 -40.98,-4.06 -11.59,3.24 -21.79,9.85 -31.39,16.91 -0.03,49.42 0.03,98.85 -0.01,148.28 -0.12,7.76 1.76,16.31 7.98,21.51 5.92,5.17 13.91,6.49 21.24,8.55 -0.01,1.56 -0.01,3.12 -0.01,4.68 -36.79,-0.01 -73.59,0.01 -110.38,-0.01 0,-1.56 0,-3.12 0,-4.67 8.16,-2.25 17.34,-3.8 23.23,-10.48 4.84,-5.23 6.08,-12.63 6.03,-19.52 -0.01,-87.05 0.01,-174.11 -0.01,-261.16 0.11,-7.11 -1.47,-14.73 -6.69,-19.91 -5.98,-6.05 -14.68,-7.6 -22.56,-9.75 0,-1.59 0,-3.17 0.01,-4.75 z" id="path25" />
    <path fill="#110f0d" d="m 705.75,162 c 15.13,-8.9 32.67,-13.42 50.18,-13.69 17.96,-0.4 36.29,3.02 52.16,11.67 15.21,8.18 27.8,21.29 34.88,37.08 5.93,12.37 8.23,26.18 8.19,39.81 -49.54,0.13 -99.11,-0.23 -148.64,0.18 -1.59,21.27 0.68,43.1 8.36,63.1 6.44,16.29 16.88,31.49 31.65,41.27 14.33,9.87 32.18,13.94 49.43,12.67 24.72,-1.94 47.92,-17.75 58.54,-40.18 1.47,0.55 2.92,1.12 4.39,1.71 -3.43,14.6 -11.8,27.62 -21.64,38.75 -14.8,16.54 -35.16,28.12 -57.08,31.85 -18.1,2.98 -36.93,1.54 -54.37,-4.13 -17.29,-5.72 -32.97,-16.37 -44.36,-30.6 -12.72,-15.55 -20.57,-34.69 -24.11,-54.38 -6.1,-32.91 -2.19,-68.52 15.2,-97.55 9.03,-15.35 21.8,-28.59 37.22,-37.56 m 37.7,-6.45 c -11.45,3.51 -20.43,12.51 -26.08,22.83 -9.02,16.32 -12.5,34.94 -14.88,53.24 31.92,0.01 63.84,0.01 95.76,0 0.01,-18.4 0.62,-37.62 -6.91,-54.84 -3.12,-8.3 -9.11,-15.7 -17.11,-19.7 -9.51,-4.65 -20.8,-4.55 -30.78,-1.53 z" id="path27" />
  </g>
  <g transform="translate(-96.781934,-50.099397)">
    <path fill="#ed1b2f" d="m 1093.46,50.73 c 25.84,-2.18 52.21,1.28 76.45,10.57 22.61,8.72 43.32,22.16 60.59,39.15 26.88,26.91 45.09,62.74 49.52,100.63 5.04,42.45 -6.85,86.42 -31.93,120.95 -16.63,23.32 -39.09,42.46 -64.74,55.2 -45.1,23.09 -100.98,25.1 -146.89,3.14 -22.51,-10.19 -42.59,-25.46 -58.84,-44.06 -21.83,-25.35 -36.47,-57.03 -40.71,-90.29 -5.17,-38.49 2.89,-78.74 23.27,-111.87 27.67,-46.96 78.92,-79.08 133.28,-83.42 m -90.61,67.21 c 0.24,1.69 0.23,3.53 1.23,5.01 3.76,6.23 7.85,12.25 11.45,18.57 -6.02,-4.58 -11.79,-9.5 -17.52,-14.43 -3.53,-5.19 -5.7,-11.22 -9.03,-16.55 0.31,4.48 1.22,8.89 1.85,13.34 0.37,8.29 6.55,14.52 9.59,21.89 -3.81,-2.92 -7.44,-6.06 -11.21,-9.02 -4.91,-3.44 -7.06,-9.29 -10.8,-13.78 0.63,3.39 1.44,6.74 2.18,10.11 0.92,7.31 6.89,12.33 10.3,18.51 -4.65,-2.47 -9.25,-5.03 -13.73,-7.78 -2.75,-2.4 -4.54,-5.7 -7.16,-8.23 1,3.07 2.07,6.12 3.11,9.18 1.33,4.36 5.06,7.3 7.49,11.01 -2.37,-0.42 -4.71,-0.87 -7.08,-1.24 4.42,4.75 9.49,8.83 14.01,13.49 -4.26,-0.2 -8.53,-0.5 -12.79,-0.58 5.74,3.96 11.89,7.28 17.65,11.19 -2.95,0.27 -5.89,0.49 -8.82,0.81 6.72,2.84 13.69,5.08 20.39,8.02 -2.83,0.96 -5.65,1.9 -8.39,3.08 15.96,1.46 32.02,1.94 47.92,3.84 -8.84,0.32 -17.69,0.24 -26.52,0.25 -0.2,1.79 -0.36,3.59 -0.52,5.38 11.11,-0.01 22.21,-0.51 33.31,-0.42 -7.92,1.55 -16.04,1.79 -24.03,2.87 -0.32,2.11 -0.65,4.22 -0.94,6.33 10.88,-1.45 21.75,-3.04 32.65,-4.41 -8.41,2.56 -17.11,4.07 -25.64,6.2 -0.12,2.44 -0.24,4.88 -0.34,7.32 11.1,-2.86 22.05,-6.32 33.22,-8.87 -8.95,4.09 -18.33,7.14 -27.38,10.99 0.07,2.22 0.14,4.43 0.24,6.65 11.26,-4.48 22.23,-9.75 33.68,-13.68 -9.01,4.93 -18.05,9.82 -27.15,14.59 0.23,2.32 0.53,4.62 0.88,6.93 11.12,-5.41 21.93,-11.45 33.16,-16.6 -8.86,6.01 -18.06,11.53 -27.04,17.36 0.49,1.92 0.98,3.84 1.49,5.77 10.57,-5.64 20.93,-11.7 31.62,-17.12 -7.86,5.83 -16.25,10.93 -24.33,16.47 0.74,2.1 1.5,4.19 2.27,6.29 8.83,-5.17 17.48,-10.65 26.41,-15.64 -5.39,4.83 -11.55,8.71 -17.26,13.14 0.99,1.96 1.98,3.93 2.98,5.89 4.37,-2.65 8.64,-5.46 13.1,-7.97 -1.6,1.68 -3.32,3.23 -5.03,4.76 0.75,1.54 1.53,3.08 2.3,4.62 4.62,-1.8 9.9,-2.68 13.6,-6.24 2.58,-2.22 3.52,-5.58 4.82,-8.6 -0.31,7.15 -5.92,12.82 -12.49,14.88 -12.72,5.11 -25.74,9.46 -38.4,14.66 -7.38,10.7 -14.03,21.93 -21.2,32.79 -0.95,1.7 -2.67,3.32 -2.09,5.47 3.64,-2.88 6.24,-6.78 9.35,-10.18 6.11,-6.89 11.81,-14.16 18.18,-20.81 -4.91,7.95 -10.45,15.49 -15.6,23.28 3.17,-0.49 6.37,-0.99 9.56,-1.45 5.07,-7.15 9.67,-14.64 14.92,-21.66 -3.25,7.21 -7.08,14.14 -10.57,21.24 2.12,-0.14 4.26,-0.25 6.41,-0.4 1.03,-0.24 2.63,0.21 3.03,-1.16 3.45,-6.5 6.24,-13.33 9.89,-19.73 -1.84,6.95 -4.55,13.63 -6.68,20.48 3.04,-0.2 6.1,-0.41 9.16,-0.62 2.07,-6.38 3.58,-12.97 6.1,-19.2 -0.76,6.33 -2.1,12.58 -3.09,18.87 3.1,-0.59 6.2,-1.19 9.32,-1.76 0.82,-5.81 1.17,-11.69 2.25,-17.46 0.33,5.51 0.09,11.03 0.17,16.54 2.33,-1.3 4.67,-2.59 7,-3.91 -0.36,-4.31 -0.87,-8.6 -0.89,-12.92 1.09,3.97 1.79,8.03 2.8,12.02 0.57,0.27 1.73,0.79 2.31,1.06 0.61,1.68 1.23,3.36 1.87,5.04 4.2,1.56 7.39,4.81 10.77,7.63 -1.43,-0.5 -2.83,-1.02 -4.21,-1.53 -13.36,3.58 -26.61,7.51 -39.83,11.58 8.14,4.71 16.32,9.34 24.45,14.07 2.78,1.56 4,5.08 2.5,7.95 0.03,-2.47 -0.1,-5.51 -2.67,-6.72 -5.39,-2.54 -10.89,-4.85 -16.35,-7.24 -3.84,1.32 -7.87,2.16 -11.54,3.92 -2.76,1.46 -2.56,5.73 -0.11,7.4 2.98,1.86 6.47,2.7 9.73,3.98 4.95,1.63 9.75,3.95 14.95,4.72 6.97,0.5 12.9,-3.85 19.11,-6.32 13.16,-5.3 24.14,-14.51 35.51,-22.76 -4,4.54 -8.72,8.36 -12.95,12.66 6.76,-3.08 13.6,-6.01 20.45,-8.89 7.78,-3.37 14.88,-8.08 22.02,-12.61 -2.77,2.93 -5.9,5.48 -8.79,8.27 11.48,-1.92 23.11,-3.17 34.76,-3.38 3.44,-0.13 7.51,-0.64 9.53,-3.83 2.08,-3.25 0.43,-7.73 -2.74,-9.59 -6.34,-3.88 -12.81,-7.53 -19.16,-11.38 -9.81,1.67 -19.45,4.2 -29.27,5.79 2.9,0.81 3.8,3.84 3.65,6.54 -1.37,-2.28 -2.85,-4.54 -5.05,-6.11 -0.77,0.17 -2.32,0.5 -3.1,0.67 2.18,1.6 3.35,3.96 3.1,6.7 -1.28,-1.83 -2.24,-3.99 -4.14,-5.26 -3.68,-2.63 -7.05,-5.65 -10.43,-8.63 -0.84,-6.09 0.22,-12.11 0.1,-18.21 -3.56,3.03 -6.82,6.43 -10.63,9.16 9.86,-12.15 20.34,-23.78 30.26,-35.89 -3.27,-0.63 -6.56,-1.13 -9.75,-2.06 5.29,-0.2 10.6,-0.11 15.9,-0.04 2.26,1.89 5.19,2.33 8.06,1.96 -1.1,-1.89 -2.26,-3.75 -3.4,-5.6 4.03,-3.37 7.5,3.09 5.55,6.57 2.68,-1.22 5.98,-2.84 6.23,-6.21 0.4,-4.79 -4.07,-7.69 -6.84,-10.9 -0.29,-1.93 -0.33,-4.02 -1.51,-5.66 -1.84,-2.74 -5.16,-3.7 -8.03,-4.89 -3.67,-1.33 -7.19,-3.08 -10.93,-4.15 -6.56,-0.6 -13.18,0.33 -19.72,-0.46 6.47,-1.37 13.16,-1.41 19.65,-2.68 2.6,-1.69 4.44,-4.45 7.36,-5.69 7.04,-2.95 14.21,-5.56 21.23,-8.55 1.88,-0.7 3.07,-2.36 3.71,-4.2 3.47,-9.29 6.88,-18.6 10.32,-27.91 1.88,-5.78 6.5,-10.01 9.79,-14.98 6.7,-9.09 13.52,-18.11 20.15,-27.26 -6.67,4.3 -12.89,9.25 -19.49,13.65 2.55,-5.67 5.63,-11.09 8.18,-16.76 -4.67,5.67 -8.33,12.09 -12.83,17.89 0.09,-5.92 1.31,-11.79 0.89,-17.72 -1.63,5.92 -2.81,11.96 -4.59,17.84 -2.8,-6.08 -4.89,-12.46 -7.8,-18.48 1.26,6.07 2.87,12.07 4.37,18.09 1.41,4.61 0.55,9.48 0.04,14.17 -0.95,-4.07 -0.41,-8.64 -2.98,-12.18 -3.78,-6.07 -7.01,-12.49 -11.09,-18.36 2.96,7.6 6.82,14.83 9.81,22.41 0.67,5.7 0.7,11.48 0.86,17.22 -1.55,-5.24 -1.33,-10.82 -2.8,-16.06 -5.38,-6.98 -10.68,-14.09 -16.52,-20.7 4.31,7.04 9.03,13.81 13.45,20.77 0.72,1 0.88,2.24 0.94,3.45 0.3,6.6 0.35,13.22 0.86,19.82 -0.16,-0.02 -0.49,-0.05 -0.65,-0.07 -0.94,-6.89 -1.51,-13.88 -2.9,-20.69 -5.96,-6.51 -12.04,-12.98 -18.39,-19.12 4.99,6.98 10.37,13.68 15.58,20.5 0.56,8.85 1.43,17.7 1.71,26.57 -2.12,-8.18 -2.64,-16.71 -4.56,-24.93 -6.09,-5.86 -12.71,-11.29 -19.32,-16.58 5.2,6.34 11.29,11.91 16.45,18.28 1.03,9.17 2.4,18.4 2.44,27.65 -1.62,-8.74 -3.62,-17.41 -5.47,-26.1 -6.54,-4.3 -12.82,-9 -19.5,-13.07 5.15,5.42 11.5,9.7 16.48,15.24 1.66,8.97 3.17,18 4.41,27.05 -2.95,-8.35 -4.89,-17.02 -7.43,-25.5 -6.21,-3.35 -12.28,-6.95 -18.58,-10.11 4.93,4.35 10.55,7.83 15.77,11.81 1.65,8.91 3.59,17.77 5.05,26.71 -3.18,-8 -5.61,-16.27 -8.51,-24.37 -5.76,-2.12 -11.41,-4.54 -17.24,-6.42 4.51,3.23 9.59,5.55 14.33,8.42 1.98,8.15 4.16,16.26 5.96,24.45 -3.62,-7.06 -6.25,-14.59 -9.48,-21.83 -5.54,-0.93 -11.02,-2.19 -16.59,-2.82 3.64,1.65 7.49,2.78 11.26,4.14 1.04,0.5 2.64,0.66 2.83,2.12 2.25,6.72 4.51,13.44 6.54,20.23 -3.86,-5.91 -7.13,-12.17 -10.83,-18.17 -4.67,-0.3 -9.32,-1.04 -13.99,-0.88 3.67,1.34 7.43,2.42 11.13,3.71 2.69,5.77 5.51,11.49 8.07,17.33 -4.11,-4.45 -7.71,-9.33 -11.7,-13.87 -4.25,0.34 -8.51,0.47 -12.74,0.82 3.35,0.95 6.78,1.55 10.21,2.18 3.04,4.5 6.22,8.92 9.13,13.51 -4.15,-3.07 -8.03,-6.47 -12.04,-9.71 -4.62,1.07 -9.33,1.83 -13.83,3.34 3.87,0.32 7.89,-0.42 11.69,0.38 3.48,2.93 6.74,6.13 9.94,9.37 -4.29,-1.56 -8.19,-4.02 -12.49,-5.52 -4.85,0.39 -9.64,1.33 -14.4,2.24 4.34,0.52 8.75,0.17 13.08,0.85 3.68,2.04 7.17,4.44 10.63,6.85 -4.14,-1.06 -8.03,-3.09 -12.24,-3.79 -6.25,0.92 -12.47,2.15 -18.61,3.59 5.83,0.19 11.67,-0.39 17.51,-0.2 3.93,1.34 7.62,3.3 11.31,5.19 -4.97,-0.58 -9.76,-3.2 -14.82,-2.13 -8.34,1.46 -16.69,2.84 -25.04,4.23 7.53,1.24 15.19,1.16 22.75,2.16 -6.15,1.48 -12.47,2.11 -18.61,3.62 4.29,0.4 8.61,0.51 12.91,0.92 -4.58,1.64 -9.37,2.55 -14.03,3.93 2.08,2.64 4.21,5.26 6.07,8.08 -4.87,-3.73 -9.65,-7.64 -14.11,-11.85 -11.49,-15.53 -22.44,-31.49 -33.99,-46.96 -10.25,-5.91 -21.21,-10.6 -31.46,-16.51 -6.99,-5.96 -13.66,-12.31 -20.58,-18.36 -1.76,-1.64 -3.98,-3.07 -4.67,-5.51 -2.39,-6.37 -4.53,-12.83 -7.1,-19.13 0.53,6.66 1.48,13.28 2.17,19.93 z" id="path30" />
  </g>
  <g transform="translate(-96.781934,-50.099397)">
    <path fill="#e41c29" d="m 1012.55,127.45 c 5.42,5.67 9.37,12.58 14.54,18.46 7.5,4.44 15.98,7.15 23.32,11.91 -6.99,-2.16 -13.65,-5.22 -20.52,-7.68 -2.24,-0.94 -5.06,-1.4 -6.09,-3.9 -3.68,-6.3 -7.86,-12.32 -11.25,-18.79 z" id="path33" />
    <path fill="#e41c29" d="m 1001.73,136.66 c 5.01,4.18 8.75,9.69 13.72,13.89 8.19,3.84 16.9,6.55 24.95,10.69 -5.38,-1.12 -10.47,-3.3 -15.71,-4.9 -3.92,-1.42 -8.05,-2.32 -11.82,-4.12 -3.89,-5.04 -7.77,-10.15 -11.14,-15.56 z" id="path35" />
    <path fill="#e41c29" d="m 989.85,142.62 c 5.72,4.09 10.22,9.63 15.66,14.05 10.04,4.06 20.82,6.25 30.76,10.57 -10.93,-2.23 -21.73,-5.23 -32.49,-8.16 -4.9,-5.23 -9.5,-10.81 -13.93,-16.46 z" id="path37" />
    <path fill="#e41c29" d="m 982.28,150.84 c 5.95,4 11.02,9.17 16.92,13.24 11.93,3.87 24.36,6.25 36.18,10.47 -12.71,-2.28 -25.35,-5.14 -37.91,-8.08 -5.21,-5.04 -10.52,-10.08 -15.19,-15.63 z" id="path39" />
    <path fill="#e41c29" d="m 1043.56,168.07 c 4.04,-2 7.91,-4.36 12.15,-5.95 -4.22,3.3 -8.96,5.86 -13.45,8.76 -0.02,-2.22 -0.03,-4.43 0.1,-6.64 0.41,1.27 0.81,2.54 1.2,3.83 z" id="path41" />
    <path fill="#e41c29" d="m 1045.57,177.1 c 5.27,-2.69 10.37,-5.72 15.79,-8.12 -5.36,4.12 -11.38,7.3 -17.09,10.89 -0.06,-2.18 -0.06,-4.37 0.31,-6.53 0.25,0.94 0.75,2.82 0.99,3.76 z" id="path43" />
    <path fill="#e41c29" d="m 984.81,170.3 c 16.81,2.95 33.46,6.84 50.22,10.11 l -0.17,0.77 c -10.23,-1.57 -20.45,-3.15 -30.68,-4.7 -6.8,-0.72 -13.22,-3.35 -19.37,-6.18 z" id="path45" />
    <path fill="#e41c29" d="m 1049.9,185 c 5.66,-2.92 11.1,-6.29 16.89,-8.96 -5.61,4.43 -11.98,7.79 -17.98,11.65 -0.06,-1.84 -0.09,-3.68 -0.12,-5.52 0.18,-0.01 0.56,-0.04 0.74,-0.06 0.12,0.72 0.35,2.17 0.47,2.89 z" id="path47" />
    <path fill="#e41c29" d="m 998.51,181.32 c 13.46,1.79 26.91,3.96 40.29,6.28 -6.29,0.68 -12.59,-0.91 -18.88,-1.14 -7.4,-0.27 -14.62,-2.32 -21.41,-5.14 z" id="path49" />
    <path fill="#e41c29" d="m 1056.47,191.67 c 5.5,-2.82 10.88,-5.92 16.55,-8.42 -5.68,4.17 -11.9,7.53 -17.91,11.19 -0.03,-2.24 -0.03,-4.48 0.31,-6.69 0.36,1.3 0.71,2.6 1.05,3.92 z" id="path51" />
    <path fill="#e41c29" d="m 1064.63,197.4 c 4.88,-2.49 9.64,-5.24 14.67,-7.43 -5.06,3.83 -10.66,6.89 -16.05,10.21 0.02,-2.22 0.08,-4.45 0.24,-6.67 0.4,1.29 0.76,2.58 1.14,3.89 z" id="path53" />
    <path fill="#e41c29" d="m 1073.35,202.99 c 4,-2.05 7.91,-4.32 12.08,-6.03 -4.13,3.43 -8.95,5.9 -13.47,8.78 0.01,-2.29 0.07,-4.59 0.4,-6.85 0.24,1.02 0.74,3.08 0.99,4.1 z" id="path55" />
    <path fill="#e41c29" d="m 1081.94,208.21 c 2.93,-1.43 5.86,-2.89 8.91,-4.08 -3.2,2.59 -6.76,4.67 -10.22,6.88 -0.01,-2.1 0.01,-4.2 0.11,-6.3 0.41,1.16 0.78,2.33 1.2,3.5 z" id="path57" />
    <path fill="#e41c29" d="m 1129.61,209.19 c 0.92,-0.53 3.04,-0.88 3.48,0.4 -0.56,1 -1.37,1.69 -2.42,2.07 -0.71,-0.5 -1.24,-1.61 -1.06,-2.47 z" id="path59" />
    <path fill="#e41c29" d="m 1141.84,209.17 c 1.98,-0.11 3.94,-0.16 5.95,-0.19 -1.54,1.32 -3.11,2.59 -4.69,3.83 0.33,-0.84 0.67,-1.67 1.03,-2.51 -0.57,-0.28 -1.72,-0.84 -2.29,-1.13 z" id="path61" />
    <path fill="#e41c29" d="m 1087.58,216.26 c 0.12,-1.81 0.27,-3.61 0.46,-5.42 0.24,0.7 0.72,2.1 0.97,2.8 2.1,-0.93 4.22,-1.86 6.41,-2.64 -2.41,2.04 -5.12,3.68 -7.84,5.26 z" id="path63" />
    <path fill="#e41c29" d="m 1154.32,211.14 c 1.22,0.19 2.46,0.37 3.72,0.54 -1.12,0.87 -2.22,1.75 -3.3,2.64 -0.11,-0.8 -0.32,-2.38 -0.42,-3.18 z" id="path65" />
    <path fill="#e41c29" d="m 1117.67,214.36 c 2.3,0 4.6,0.02 6.92,0.07 -1.83,1.54 -3.71,3 -5.63,4.41 0.45,-0.96 0.91,-1.92 1.39,-2.87 -0.91,-0.54 -1.8,-1.08 -2.68,-1.61 z" id="path67" />
    <path fill="#e41c29" d="m 1169.02,217.01 c -0.53,-1.68 1.1,-2.51 2.18,-3.35 -0.05,1.31 -1.56,3.7 0.78,3.91 0.55,-0.62 1.67,-1.86 2.22,-2.48 -0.07,0.93 0.2,1.95 -0.2,2.83 -0.99,2.13 -4.86,1.44 -4.98,-0.91 z" id="path69" />
    <path fill="#e41c29" d="m 1131.92,216.01 c 2.32,-0.14 4.66,-0.16 7,-0.02 -1.83,1.51 -3.69,2.96 -5.63,4.31 0.36,-0.71 1.07,-2.12 1.43,-2.82 -0.7,-0.37 -2.1,-1.1 -2.8,-1.47 z" id="path71" />
    <path fill="#e41c29" d="m 1094.42,219.41 c 2.52,-1.2 5.08,-2.35 7.72,-3.27 -2.87,2.23 -6.02,4.05 -9.14,5.9 0.09,-1.8 0.2,-3.59 0.3,-5.37 0.36,0.91 0.73,1.82 1.12,2.74 z" id="path73" />
    <path fill="#e41c29" d="m 1144.69,218.52 c 2.31,-0.03 4.63,-0.02 6.96,0.03 -1.77,1.53 -3.62,2.96 -5.49,4.33 0.42,-0.94 0.83,-1.89 1.29,-2.83 -0.93,-0.51 -1.85,-1.02 -2.76,-1.53 z" id="path75" />
    <path fill="#e41c29" d="m 1178.39,220.11 c 3.05,2.74 7.05,5.49 6.63,10.17 -0.9,-4.22 -4.42,-6.55 -7.71,-8.84 0.27,-0.33 0.81,-1 1.08,-1.33 z" id="path77" />
    <path fill="#e41c29" d="m 1097.12,225.56 c 1.92,-0.93 3.86,-1.84 5.87,-2.58 -2.23,1.88 -4.66,3.51 -7.08,5.12 0.13,-1.43 0.27,-2.87 0.42,-4.29 0.2,0.43 0.6,1.31 0.79,1.75 z" id="path79" />
    <path fill="#e41c29" d="m 1119.68,224.85 c 2.71,-0.51 5.46,-0.91 8.22,-1.17 -1.96,2.11 -3.95,4.2 -6.02,6.2 0.38,-1.25 0.79,-2.49 1.21,-3.72 -1.17,-0.44 -2.28,-0.86 -3.41,-1.31 z" id="path81" />
    <path fill="#e41c29" d="m 1108.33,225.99 c 1.94,-0.36 3.89,-0.69 5.86,-1.01 -1.38,1.5 -2.78,2.98 -4.2,4.43 0.21,-0.65 0.63,-1.95 0.84,-2.6 -0.62,-0.21 -1.87,-0.62 -2.5,-0.82 z" id="path83" />
    <path fill="#e41c29" d="m 1133.73,226.9 c 2.59,-0.61 5.2,-1.16 7.84,-1.6 -1.69,2.18 -3.5,4.26 -5.43,6.23 0.34,-1.22 0.69,-2.43 1.06,-3.64 -1.2,-0.33 -2.32,-0.65 -3.47,-0.99 z" id="path85" />
    <path fill="#e41c29" d="m 1169.17,226.14 c 1.48,-1.51 3.45,-0.34 4.99,0.4 -2.6,-0.02 -4.91,0.81 -5.25,3.68 -0.53,-1.34 -0.97,-2.95 0.26,-4.08 z" id="path87" />
    <path fill="#e41c29" d="m 1145.57,230.17 c 1.95,-0.11 3.91,-0.22 5.89,-0.31 -1.41,1.31 -2.82,2.62 -4.22,3.93 0.24,-0.85 0.47,-1.7 0.74,-2.54 -0.6,-0.27 -1.81,-0.81 -2.41,-1.08 z" id="path89" />
    <path fill="#e41c29" d="m 1097.61,231.67 c 1.66,0.22 3.28,-0.15 4.89,-0.58 -1.71,1.33 -3.43,2.64 -5.17,3.92 0.08,-1.12 0.17,-2.23 0.28,-3.34 z" id="path91" />
    <path fill="#e41c29" d="m 1109.39,235.73 c 2.2,-0.51 4.43,-0.99 6.66,-1.4 -1.44,1.74 -2.9,3.44 -4.43,5.09 0.15,-0.69 0.44,-2.08 0.59,-2.78 -0.96,-0.3 -1.89,-0.61 -2.82,-0.91 z" id="path93" />
    <path fill="#e41c29" d="m 1121.6,237.15 c 2.68,-0.95 5.41,-1.75 8.18,-2.42 -1.51,2.3 -3.12,4.55 -4.95,6.61 0.13,-0.89 0.4,-2.65 0.53,-3.53 -0.94,-0.17 -2.82,-0.49 -3.76,-0.66 z" id="path95" />
    <path fill="#e41c29" d="m 1134.94,238.57 c 2.34,-0.65 4.72,-1.2 7.12,-1.69 -1.47,1.89 -3,3.74 -4.61,5.5 0.25,-1.06 0.53,-2.12 0.83,-3.18 -0.84,-0.16 -2.51,-0.47 -3.34,-0.63 z" id="path97" />
    <path fill="#e41c29" d="m 1148.13,240.72 c 1.25,-0.16 2.51,-0.32 3.78,-0.48 -0.89,1.01 -1.78,2.02 -2.64,3.04 -0.4,-0.86 -0.78,-1.71 -1.14,-2.56 z" id="path99" />
    <path fill="#e41c29" d="m 1111.11,246.21 c 2.21,-0.72 4.46,-1.34 6.74,-1.91 -1.38,1.95 -2.81,3.85 -4.27,5.71 0.16,-1.08 0.33,-2.16 0.53,-3.23 -0.75,-0.15 -2.25,-0.43 -3,-0.57 z" id="path101" />
    <path fill="#e41c29" d="m 1124.47,249.03 c 2.63,-1.03 5.32,-1.94 8.04,-2.74 -1.46,2.42 -3.05,4.76 -4.76,7 0.15,-1.25 0.31,-2.49 0.5,-3.74 -1.27,-0.16 -2.53,-0.34 -3.78,-0.52 z" id="path103" />
    <path fill="#e41c29" d="m 1139.16,249.1 c 1.92,-0.31 3.86,-0.61 5.81,-0.88 -1.36,1.47 -2.74,2.93 -4.13,4.36 l 0.72,-2.4 c -0.6,-0.27 -1.8,-0.81 -2.4,-1.08 z" id="path105" />
    <path fill="#e41c29" d="m 1102.31,250.83 c 1.82,0.03 3.65,0 5.49,-0.03 -1.19,1.1 -2.37,2.21 -3.49,3.37 -0.09,-1.45 -0.75,-2.56 -2,-3.34 z" id="path107" />
    <path fill="#e41c29" d="m 1114.93,255.95 c 2.22,-0.61 4.49,-1.12 6.78,-1.54 -1.46,1.87 -3,3.68 -4.6,5.42 0.23,-1.05 0.48,-2.09 0.75,-3.13 -0.73,-0.19 -2.2,-0.56 -2.93,-0.75 z" id="path109" />
    <path fill="#e41c29" d="m 1095.53,257.29 c 0.97,-0.38 2.62,-0.53 3.34,0.41 -0.38,1.06 -1.62,2.26 -2.8,1.97 -0.7,-0.71 -0.88,-1.5 -0.54,-2.38 z" id="path111" />
    <path fill="#e41c29" d="m 1131.08,258.24 c 1.94,-0.31 3.91,-0.6 5.87,-0.87 -1.35,1.48 -2.72,2.95 -4.09,4.4 0.2,-0.65 0.59,-1.94 0.79,-2.59 -0.65,-0.23 -1.93,-0.7 -2.57,-0.94 z" id="path113" />
    <path fill="#e41c29" d="m 1104.93,259.08 c 2.04,0.02 4.12,0.05 6.19,0.1 -1.55,1.27 -3.14,2.51 -4.7,3.75 0.28,-0.64 0.84,-1.93 1.12,-2.57 -0.65,-0.32 -1.96,-0.96 -2.61,-1.28 z" id="path115" />
    <path fill="#e41c29" d="m 1122.13,263.72 c 1.26,-0.18 2.54,-0.35 3.83,-0.52 -0.88,1.04 -1.75,2.09 -2.6,3.14 -0.43,-0.88 -0.84,-1.75 -1.23,-2.62 z" id="path117" />
    <path fill="#e41c29" d="m 1076.26,263.79 c 1.3,0.05 2.62,0.09 3.95,0.13 -1.26,1.04 -2.5,2.1 -3.66,3.22 0.33,-1.14 0.17,-2.27 -0.29,-3.35 z" id="path119" />
    <path fill="#e41c29" d="m 1087.27,263.79 c 1.37,0.05 2.75,0.1 4.15,0.15 -1.26,0.99 -2.5,1.99 -3.69,3.04 0.34,-1.12 0.19,-2.19 -0.46,-3.19 z" id="path121" />
    <path fill="#e41c29" d="m 1098.59,266.17 c 0.94,-0.52 2.96,-0.77 3.47,0.44 -0.53,1.02 -1.33,1.71 -2.4,2.07 -0.73,-0.5 -1.2,-1.65 -1.07,-2.51 z" id="path123" />
    <path fill="#e41c29" d="m 1110.52,266.77 c 1.51,0.07 3.03,0.13 4.57,0.18 -1.22,1.03 -2.43,2.07 -3.57,3.18 -0.25,-0.84 -0.75,-2.52 -1,-3.36 z" id="path125" />
    <path fill="#e41c29" d="m 1117.15,272.02 c 3.73,4.16 7.07,8.64 10.71,12.88 4.92,-0.47 8.64,3.24 12.83,5.16 -2.71,0.66 -5.4,1.33 -8.1,1.92 2.19,1.4 3.39,3.68 3.36,6.3 -1.58,-1.97 -3.09,-4.01 -5.01,-5.65 -0.94,0.12 -2.83,0.35 -3.77,0.47 2.49,1.43 3.92,3.9 3.53,6.81 -2.51,-5.3 -8.72,-7.59 -10.97,-13.04 -1.05,-4.91 -1.82,-9.88 -2.58,-14.85 z" id="path127" />
    <path fill="#e41c29" d="m 1166.48,290.59 c 6.5,-2.69 13.75,-3.6 20.75,-4.05 -6.65,2.34 -13.76,3.35 -20.75,4.05 z" id="path129" />
    <path fill="#e41c29" d="m 1147.97,287.63 c 3.85,-0.28 6.54,3.05 6.13,6.73 -1.72,-2.53 -3.53,-5.04 -6.13,-6.73 z" id="path131" />
    <path fill="#e41c29" d="m 1167.75,294.65 c 9.4,-1.85 18.9,-4.04 28.53,-3.86 -5.95,1.69 -12.17,2.16 -18.25,3.17 -3.41,0.48 -6.85,1.21 -10.28,0.69 z" id="path133" />
    <path fill="#e41c29" d="m 1119.92,294.78 c 3.68,-0.51 6.31,2.84 5.79,6.37 -1.57,-2.44 -3.38,-4.73 -5.79,-6.37 z" id="path135" />
    <path fill="#e41c29" d="m 1145.5,299.91 c 5.01,-2.67 10.82,-3.55 16.43,-3.94 -5.2,2.22 -10.86,3.25 -16.43,3.94 z" id="path137" />
    <path fill="#e41c29" d="m 1103.42,306.51 c 5.54,-1.77 11.05,-3.88 16.86,-4.57 -5.22,2.58 -10.95,3.93 -16.41,5.9 -4.85,1.38 -9.51,3.58 -14.53,4.17 4.48,-2.32 9.33,-3.82 14.08,-5.5 z" id="path139" />
    <path fill="#e41c29" d="m 1119.74,307.68 c 6.51,-2.15 12.95,-4.77 19.75,-5.85 -7.28,3.26 -15.02,5.36 -22.45,8.25 -6.51,2.23 -12.86,4.94 -19.48,6.83 6.92,-4.06 14.71,-6.37 22.18,-9.23 z" id="path141" />
    <path fill="#e41c29" d="m 1073.73,325.86 c 2.07,-3.13 6.58,-2.77 9.81,-3.94 -1.88,1.19 -3.84,2.24 -5.79,3.31 4.58,2.09 9.3,3.92 13.7,6.4 -5.98,-1.71 -11.82,-3.84 -17.72,-5.77 z" id="path143" />
  </g>
</svg>
